<svg xmlns="http://www.w3.org/2000/svg" viewBox="0 0 256 256" fill="none" role="img" aria-hidden="true">
  <defs>
    <linearGradient id="pmBody" x1="18%" y1="12%" x2="88%" y2="78%">
      <stop offset="0%" stop-color="#0aa87c"/>
      <stop offset="38%" stop-color="#12c992"/>
      <stop offset="72%" stop-color="#7ee8c8"/>
      <stop offset="100%" stop-color="#c6f7e8"/>
    </linearGradient>
    <linearGradient id="pmDot" x1="0" y1="1" x2="1" y2="0">
      <stop offset="0%" stop-color="#0aa87c"/>
      <stop offset="100%" stop-color="#e7fff7"/>
    </linearGradient>
  </defs>
  <path fill="url(#pmBody)" fill-rule="evenodd" d="M93.00,26.00 L95.00,26.00 L97.00,26.00 L99.00,26.00 L101.00,26.00 L103.00,26.00 L105.00,26.00 L107.00,26.00 L109.00,26.00 L111.00,26.00 L113.00,26.00 L115.00,26.00 L117.00,26.00 L119.00,26.00 L121.00,26.00 L123.00,26.00 L125.00,26.00 L127.00,26.00 L129.00,26.00 L131.00,26.00 L133.00,27.00 L135.00,27.00 L137.00,27.00 L139.00,27.00 L141.00,28.00 L143.00,28.00 L145.00,29.00 L147.00,29.00 L149.00,30.00 L151.00,31.00 L153.00,31.00 L155.00,32.00 L157.00,33.00 L159.00,34.00 L161.00,35.00 L163.00,36.00 L165.00,37.00 L167.00,38.00 L169.00,40.00 L171.00,41.00 L173.00,43.00 L175.00,45.00 L177.00,47.00 L179.00,49.00 L181.00,51.00 L182.00,53.00 L184.00,55.00 L185.00,57.00 L186.00,59.00 L187.00,61.00 L189.00,63.00 L190.00,65.00 L191.00,67.00 L191.00,69.00 L192.00,71.00 L193.00,73.00 L194.00,75.00 L195.00,77.00 L195.00,79.00 L196.00,81.00 L196.00,83.00 L197.00,85.00 L197.00,87.00 L198.00,89.00 L198.00,91.00 L198.00,93.00 L199.00,95.00 L199.00,97.00 L199.00,99.00 L200.00,101.00 L200.00,103.00 L200.00,105.00 L200.00,107.00 L201.00,109.00 L202.00,111.00 L203.00,113.00 L204.00,115.00 L205.00,117.00 L206.00,119.00 L207.00,121.00 L209.00,123.00 L210.00,125.00 L211.00,127.00 L212.00,129.00 L214.00,131.00 L214.00,133.00 L215.00,135.00 L214.00,137.00 L213.00,139.00 L211.00,140.00 L209.00,140.00 L207.00,141.00 L205.00,141.00 L203.00,142.00 L202.00,144.00 L201.00,146.00 L202.00,148.00 L203.00,150.00 L203.00,152.00 L203.00,154.00 L202.00,156.00 L200.00,158.00 L200.00,160.00 L201.00,162.00 L201.00,164.00 L200.00,166.00 L198.00,168.00 L196.00,170.00 L196.00,172.00 L196.00,174.00 L196.00,176.00 L196.00,178.00 L196.00,180.00 L196.00,182.00 L195.00,184.00 L194.00,186.00 L193.00,188.00 L192.00,190.00 L190.00,192.00 L188.00,194.00 L186.00,195.00 L184.00,196.00 L182.00,196.00 L180.00,197.00 L178.00,198.00 L176.00,198.00 L174.00,198.00 L172.00,198.00 L170.00,198.00 L168.00,198.00 L166.00,198.00 L164.00,198.00 L162.00,198.00 L160.00,198.00 L158.00,198.00 L156.00,198.00 L154.00,198.00 L152.00,198.00 L150.00,198.00 L148.00,198.00 L146.00,198.00 L144.00,198.00 L142.00,198.00 L140.00,198.00 L138.00,198.00 L136.00,198.00 L134.00,198.00 L132.00,198.00 L130.00,198.00 L128.00,198.00 L126.00,198.00 L124.00,198.00 L122.00,198.00 L120.00,198.00 L118.00,198.00 L116.00,198.00 L114.00,198.00 L112.00,198.00 L110.00,198.00 L108.00,198.00 L106.00,198.00 L104.00,198.00 L102.00,198.00 L100.00,198.00 L98.00,198.00 L96.00,198.00 L94.00,198.00 L92.00,198.00 L90.00,198.00 L88.00,198.00 L86.00,198.00 L84.00,198.00 L82.00,198.00 L80.00,198.00 L78.00,198.00 L76.00,198.00 L74.00,198.00 L72.00,198.00 L70.00,198.00 L68.00,198.00 L66.00,198.00 L64.00,198.00 L62.00,199.00 L60.00,199.00 L58.00,199.00 L56.00,200.00 L54.00,201.00 L52.00,202.00 L50.00,203.00 L48.00,204.00 L46.00,206.00 L44.00,207.00 L42.00,209.00 L40.00,211.00 L38.00,213.00 L36.00,215.00 L34.00,217.00 L32.00,219.00 L30.00,220.00 L28.00,222.00 L26.00,224.00 L24.00,226.00 L22.00,227.00 L20.00,228.00 L18.00,229.00 L16.00,229.00 L14.00,228.00 L12.00,227.00 L10.00,226.00 L9.00,224.00 L8.00,222.00 L8.00,220.00 L8.00,218.00 L8.00,216.00 L8.00,214.00 L8.00,212.00 L8.00,210.00 L8.00,208.00 L8.00,206.00 L8.00,204.00 L8.00,202.00 L8.00,200.00 L8.00,198.00 L8.00,196.00 L8.00,194.00 L8.00,192.00 L7.00,190.00 L7.00,188.00 L7.00,186.00 L7.00,184.00 L7.00,182.00 L7.00,180.00 L7.00,178.00 L7.00,176.00 L7.00,174.00 L7.00,172.00 L7.00,170.00 L7.00,168.00 L7.00,166.00 L7.00,164.00 L7.00,162.00 L7.00,160.00 L7.00,158.00 L7.00,156.00 L7.00,154.00 L7.00,152.00 L7.00,150.00 L7.00,148.00 L7.00,146.00 L7.00,144.00 L7.00,142.00 L7.00,140.00 L7.00,138.00 L7.00,136.00 L7.00,134.00 L7.00,132.00 L7.00,130.00 L7.00,128.00 L7.00,126.00 L7.00,124.00 L7.00,122.00 L7.00,120.00 L7.00,118.00 L7.00,116.00 L7.00,114.00 L7.00,112.00 L7.00,110.00 L7.00,108.00 L7.00,106.00 L7.00,104.00 L8.00,102.00 L8.00,100.00 L8.00,98.00 L9.00,96.00 L9.00,94.00 L10.00,92.00 L10.00,90.00 L11.00,88.00 L11.00,86.00 L12.00,84.00 L13.00,82.00 L14.00,80.00 L15.00,78.00 L16.00,76.00 L17.00,74.00 L18.00,72.00 L19.00,70.00 L20.00,68.00 L22.00,66.00 L23.00,64.00 L25.00,62.00 L26.00,60.00 L28.00,58.00 L29.00,56.00 L31.00,54.00 L33.00,52.00 L35.00,50.00 L37.00,49.00 L39.00,47.00 L41.00,45.00 L43.00,44.00 L45.00,43.00 L47.00,41.00 L49.00,40.00 L51.00,39.00 L53.00,38.00 L55.00,37.00 L57.00,36.00 L59.00,35.00 L61.00,34.00 L63.00,33.00 L65.00,32.00 L67.00,32.00 L69.00,31.00 L71.00,30.00 L73.00,30.00 L75.00,29.00 L77.00,29.00 L79.00,28.00 L81.00,28.00 L83.00,28.00 L85.00,27.00 L87.00,27.00 L89.00,27.00 L91.00,27.00 L92.00,27.00 Z M82.00,65.00 L84.00,65.00 L86.00,65.00 L88.00,65.00 L90.00,65.00 L92.00,65.00 L94.00,65.00 L96.00,65.00 L98.00,65.00 L100.00,65.00 L102.00,65.00 L104.00,65.00 L106.00,65.00 L108.00,65.00 L110.00,65.00 L112.00,65.00 L114.00,65.00 L116.00,65.00 L118.00,65.00 L120.00,65.00 L122.00,65.00 L124.00,65.00 L126.00,66.00 L128.00,66.00 L130.00,67.00 L132.00,68.00 L134.00,68.00 L135.00,69.00 L137.00,70.00 L138.00,71.00 L140.00,72.00 L141.00,73.00 L142.00,74.00 L143.00,75.00 L144.00,76.00 L145.00,77.00 L146.00,79.00 L146.00,81.00 L146.00,83.00 L146.00,85.00 L146.00,87.00 L146.00,89.00 L146.00,91.00 L146.00,93.00 L146.00,95.00 L146.00,97.00 L146.00,99.00 L146.00,101.00 L146.00,103.00 L146.00,105.00 L146.00,107.00 L146.00,109.00 L146.00,111.00 L146.00,113.00 L146.00,115.00 L146.00,117.00 L146.00,119.00 L146.00,121.00 L146.00,123.00 L146.00,125.00 L146.00,127.00 L146.00,129.00 L146.00,131.00 L146.00,133.00 L146.00,135.00 L146.00,137.00 L146.00,139.00 L146.00,141.00 L145.00,142.00 L145.00,144.00 L144.00,146.00 L143.00,148.00 L142.00,150.00 L141.00,152.00 L140.00,154.00 L139.00,155.00 L138.00,156.00 L137.00,158.00 L136.00,159.00 L135.00,160.00 L133.00,161.00 L132.00,162.00 L131.00,163.00 L129.00,164.00 L127.00,165.00 L125.00,166.00 L123.00,166.00 L122.00,167.00 L120.00,167.00 L118.00,168.00 L116.00,168.00 L114.00,168.00 L112.00,168.00 L110.00,168.00 L108.00,168.00 L106.00,168.00 L104.00,168.00 L102.00,168.00 L100.00,168.00 L98.00,168.00 L96.00,168.00 L94.00,168.00 L92.00,168.00 L90.00,168.00 L88.00,168.00 L86.00,169.00 L84.00,169.00 L83.00,170.00 L81.00,171.00 L79.00,172.00 L78.00,173.00 L77.00,174.00 L75.00,175.00 L74.00,176.00 L73.00,177.00 L71.00,178.00 L70.00,179.00 L68.00,180.00 L67.00,181.00 L66.00,182.00 L64.00,183.00 L63.00,184.00 L62.00,185.00 L60.00,186.00 L59.00,187.00 L57.00,188.00 L56.00,187.00 L54.00,186.00 L54.00,184.00 L54.00,182.00 L55.00,181.00 L56.00,179.00 L56.00,177.00 L57.00,176.00 L58.00,174.00 L58.00,172.00 L59.00,171.00 L60.00,169.00 L60.00,167.00 L61.00,166.00 L61.00,164.00 L62.00,163.00 L61.00,162.00 L60.00,161.00 L59.00,160.00 L58.00,159.00 L57.00,158.00 L55.00,157.00 L54.00,156.00 L52.00,155.00 L51.00,154.00 L50.00,153.00 L49.00,152.00 L48.00,151.00 L47.00,149.00 L46.00,148.00 L45.00,147.00 L44.00,145.00 L43.00,144.00 L42.00,142.00 L41.00,140.00 L40.00,138.00 L40.00,136.00 L39.00,135.00 L39.00,133.00 L38.00,132.00 L38.00,130.00 L37.00,128.00 L37.00,126.00 L37.00,124.00 L37.00,122.00 L37.00,120.00 L37.00,118.00 L37.00,116.00 L37.00,114.00 L37.00,112.00 L38.00,110.00 L38.00,108.00 L38.00,106.00 L39.00,105.00 L39.00,103.00 L40.00,102.00 L41.00,100.00 L41.00,98.00 L42.00,97.00 L43.00,95.00 L44.00,93.00 L45.00,91.00 L46.00,90.00 L47.00,88.00 L48.00,87.00 L49.00,86.00 L50.00,84.00 L51.00,83.00 L52.00,82.00 L53.00,81.00 L54.00,80.00 L55.00,79.00 L56.00,78.00 L57.00,77.00 L58.00,76.00 L60.00,75.00 L61.00,74.00 L63.00,73.00 L64.00,72.00 L66.00,71.00 L68.00,70.00 L70.00,69.00 L72.00,68.00 L74.00,68.00 L75.00,67.00 L77.00,67.00 L78.00,66.00 L80.00,66.00 L81.00,66.00 Z"/>
  <path fill="#0b5c48" d="M173.00,98.00 L175.00,98.00 L177.00,98.00 L179.00,98.00 L180.00,99.00 L182.00,99.00 L183.00,100.00 L185.00,101.00 L186.00,102.00 L187.00,103.00 L188.00,105.00 L189.00,107.00 L189.00,109.00 L188.00,111.00 L186.00,111.00 L184.00,110.00 L183.00,108.00 L182.00,107.00 L181.00,106.00 L180.00,105.00 L178.00,105.00 L177.00,104.00 L175.00,104.00 L174.00,105.00 L172.00,105.00 L171.00,106.00 L170.00,107.00 L169.00,108.00 L168.00,109.00 L167.00,111.00 L165.00,111.00 L163.00,110.00 L163.00,108.00 L163.00,106.00 L164.00,105.00 L165.00,103.00 L166.00,102.00 L167.00,101.00 L168.00,100.00 L170.00,99.00 L172.00,99.00 Z"/>
  <circle cx="68" cy="118.5" r="8.1" fill="url(#pmDot)"/>
  <circle cx="93" cy="118.5" r="8.1" fill="url(#pmDot)"/>
  <circle cx="119" cy="118.5" r="8.1" fill="url(#pmDot)"/>
  <path fill="#19d4a4" d="M213.00,35.00 L214.00,36.00 L214.00,37.00 L214.00,38.00 L214.00,39.00 L215.00,40.00 L215.00,41.00 L216.00,42.00 L216.00,43.00 L217.00,44.00 L217.00,45.00 L218.00,46.00 L219.00,47.00 L220.00,48.00 L221.00,49.00 L222.00,49.00 L223.00,50.00 L224.00,51.00 L225.00,51.00 L226.00,52.00 L227.00,52.00 L228.00,52.00 L229.00,53.00 L229.00,54.00 L228.00,54.00 L227.00,55.00 L226.00,55.00 L225.00,55.00 L224.00,56.00 L223.00,57.00 L222.00,57.00 L221.00,58.00 L220.00,59.00 L219.00,60.00 L218.00,61.00 L217.00,62.00 L217.00,63.00 L216.00,64.00 L215.00,65.00 L215.00,66.00 L215.00,67.00 L214.00,68.00 L214.00,69.00 L214.00,70.00 L213.00,71.00 L212.00,71.00 L212.00,70.00 L211.00,69.00 L211.00,68.00 L211.00,67.00 L210.00,66.00 L210.00,65.00 L210.00,64.00 L209.00,63.00 L208.00,62.00 L207.00,61.00 L206.00,60.00 L206.00,59.00 L205.00,58.00 L204.00,57.00 L203.00,57.00 L202.00,56.00 L201.00,56.00 L200.00,55.00 L199.00,55.00 L198.00,54.00 L197.00,54.00 L196.00,54.00 L196.00,53.00 L197.00,52.00 L198.00,52.00 L199.00,52.00 L200.00,51.00 L201.00,51.00 L202.00,50.00 L203.00,50.00 L204.00,49.00 L205.00,48.00 L206.00,47.00 L207.00,46.00 L208.00,45.00 L209.00,44.00 L209.00,43.00 L210.00,42.00 L210.00,41.00 L211.00,40.00 L211.00,39.00 L211.00,38.00 L212.00,37.00 L212.00,36.00 Z"/>
  <path fill="#19d4a4" d="M234.00,66.00 L235.00,66.00 L236.00,67.00 L236.00,68.00 L236.00,69.00 L237.00,70.00 L237.00,71.00 L238.00,72.00 L238.00,73.00 L239.00,74.00 L239.00,75.00 L240.00,76.00 L241.00,76.00 L242.00,77.00 L243.00,78.00 L244.00,79.00 L245.00,79.00 L246.00,80.00 L247.00,80.00 L248.00,81.00 L249.00,81.00 L248.00,82.00 L247.00,82.00 L246.00,83.00 L245.00,83.00 L244.00,84.00 L243.00,84.00 L242.00,85.00 L241.00,86.00 L240.00,87.00 L239.00,88.00 L238.00,89.00 L238.00,90.00 L237.00,91.00 L237.00,92.00 L237.00,93.00 L236.00,94.00 L236.00,95.00 L236.00,96.00 L235.00,97.00 L234.00,96.00 L234.00,95.00 L234.00,94.00 L233.00,93.00 L233.00,92.00 L232.00,91.00 L232.00,90.00 L231.00,89.00 L231.00,88.00 L230.00,87.00 L229.00,86.00 L228.00,85.00 L227.00,85.00 L226.00,84.00 L225.00,83.00 L224.00,83.00 L223.00,82.00 L222.00,82.00 L221.00,82.00 L221.00,81.00 L222.00,80.00 L223.00,80.00 L224.00,80.00 L225.00,79.00 L226.00,79.00 L227.00,78.00 L228.00,77.00 L229.00,76.00 L230.00,75.00 L231.00,74.00 L232.00,73.00 L232.00,72.00 L233.00,71.00 L233.00,70.00 L233.00,69.00 L234.00,68.00 L234.00,67.00 Z"/>
</svg>
